<?xml version="1.0" standalone="no"?>
<svg xmlns:xlink="http://www.w3.org/1999/xlink" id="wave" style="transform:rotate(0deg); transition: 0.3s" viewBox="0 0 1440 360" version="1.1" xmlns="http://www.w3.org/2000/svg"><defs><linearGradient id="sw-gradient-0" x1="0" x2="0" y1="1" y2="0"><stop stop-color="rgba(179.328, 219.29, 255, 1)" offset="0%"/><stop stop-color="rgba(99, 181, 255, 1)" offset="100%"/></linearGradient></defs><path style="transform:translate(0, 0px); opacity:1" fill="url(#sw-gradient-0)" d="M0,288L60,282C120,276,240,264,360,222C480,180,600,108,720,108C840,108,960,180,1080,186C1200,192,1320,132,1440,102C1560,72,1680,72,1800,72C1920,72,2040,72,2160,96C2280,120,2400,168,2520,162C2640,156,2760,96,2880,90C3000,84,3120,132,3240,168C3360,204,3480,228,3600,252C3720,276,3840,300,3960,306C4080,312,4200,300,4320,252C4440,204,4560,120,4680,84C4800,48,4920,60,5040,72C5160,84,5280,96,5400,114C5520,132,5640,156,5760,192C5880,228,6000,276,6120,246C6240,216,6360,108,6480,84C6600,60,6720,120,6840,162C6960,204,7080,228,7200,252C7320,276,7440,300,7560,264C7680,228,7800,132,7920,126C8040,120,8160,204,8280,210C8400,216,8520,144,8580,108L8640,72L8640,360L8580,360C8520,360,8400,360,8280,360C8160,360,8040,360,7920,360C7800,360,7680,360,7560,360C7440,360,7320,360,7200,360C7080,360,6960,360,6840,360C6720,360,6600,360,6480,360C6360,360,6240,360,6120,360C6000,360,5880,360,5760,360C5640,360,5520,360,5400,360C5280,360,5160,360,5040,360C4920,360,4800,360,4680,360C4560,360,4440,360,4320,360C4200,360,4080,360,3960,360C3840,360,3720,360,3600,360C3480,360,3360,360,3240,360C3120,360,3000,360,2880,360C2760,360,2640,360,2520,360C2400,360,2280,360,2160,360C2040,360,1920,360,1800,360C1680,360,1560,360,1440,360C1320,360,1200,360,1080,360C960,360,840,360,720,360C600,360,480,360,360,360C240,360,120,360,60,360L0,360Z"/><defs><linearGradient id="sw-gradient-1" x1="0" x2="0" y1="1" y2="0"><stop stop-color="rgba(124.621, 193.153, 255, 1)" offset="0%"/><stop stop-color="rgba(99, 181, 255, 1)" offset="100%"/></linearGradient></defs><path style="transform:translate(0, 50px); opacity:0.9" fill="url(#sw-gradient-1)" d="M0,216L60,204C120,192,240,168,360,168C480,168,600,192,720,222C840,252,960,288,1080,270C1200,252,1320,180,1440,132C1560,84,1680,60,1800,66C1920,72,2040,108,2160,102C2280,96,2400,48,2520,72C2640,96,2760,192,2880,240C3000,288,3120,288,3240,240C3360,192,3480,96,3600,60C3720,24,3840,48,3960,90C4080,132,4200,192,4320,228C4440,264,4560,276,4680,270C4800,264,4920,240,5040,192C5160,144,5280,72,5400,42C5520,12,5640,24,5760,48C5880,72,6000,108,6120,156C6240,204,6360,264,6480,258C6600,252,6720,180,6840,144C6960,108,7080,108,7200,114C7320,120,7440,132,7560,114C7680,96,7800,48,7920,30C8040,12,8160,24,8280,48C8400,72,8520,108,8580,126L8640,144L8640,360L8580,360C8520,360,8400,360,8280,360C8160,360,8040,360,7920,360C7800,360,7680,360,7560,360C7440,360,7320,360,7200,360C7080,360,6960,360,6840,360C6720,360,6600,360,6480,360C6360,360,6240,360,6120,360C6000,360,5880,360,5760,360C5640,360,5520,360,5400,360C5280,360,5160,360,5040,360C4920,360,4800,360,4680,360C4560,360,4440,360,4320,360C4200,360,4080,360,3960,360C3840,360,3720,360,3600,360C3480,360,3360,360,3240,360C3120,360,3000,360,2880,360C2760,360,2640,360,2520,360C2400,360,2280,360,2160,360C2040,360,1920,360,1800,360C1680,360,1560,360,1440,360C1320,360,1200,360,1080,360C960,360,840,360,720,360C600,360,480,360,360,360C240,360,120,360,60,360L0,360Z"/></svg>